<?xml version="1.0" encoding="utf-8"?>
<!-- Generator: Adobe Illustrator 22.0.1, SVG Export Plug-In . SVG Version: 6.00 Build 0)  -->
<svg version="1.1" id="fdb0f8c4-3df2-405a-ba23-95c6aefe8bb3"
	 xmlns="http://www.w3.org/2000/svg" xmlns:xlink="http://www.w3.org/1999/xlink" x="0px" y="0px" viewBox="0 0 959 554.5"
	 style="enable-background:new 0 0 959 554.5;" xml:space="preserve">
<style type="text/css">
	.st0{fill:#3F3D56;}
	.st1{fill:#A0616A;}
	.st2{fill:#2F2E41;}
	.st3{fill:#575A89;}
	.st4{opacity:0.2;enable-background:new    ;}
	.st5{fill:#6C63FF;}
	.st6{fill:#FBBEBE;}
	.st7{fill:#CFCCE0;}
</style>
<title>share_link</title>
<rect x="696" y="477.5" class="st0" width="241" height="2"/>
<polygon class="st1" points="749.7,459.5 756.7,496.5 771.7,500.5 767.7,456.5 "/>
<polygon class="st1" points="833.7,459.5 840.7,496.5 855.7,500.5 851.7,456.5 "/>
<path class="st2" d="M765.7,489.5c0,0-16-1-16,4s-8,22-8,22s-6,20,10,18s26-20,26-20l-4-19L765.7,489.5z"/>
<path class="st2" d="M845.9,491.4c0,0-10.7-6.9-9.9-2.3s1.5,16.8,6.9,17.5s21.3,5.3,22.1,6.9s19.1,7.6,19.1-2.3
	s-11.4-17.5-11.4-17.5l-13-9.9c0,0-8.4-0.8-9.9,4.6S845.9,491.4,845.9,491.4z"/>
<path class="st1" d="M744.5,249c0,0-17-25-23-17s15,23,15,23L744.5,249z"/>
<path class="st3" d="M750.5,273c-1-1-19-18-19-18l13-9l15,15L750.5,273z"/>
<path class="st3" d="M753,195.5c0,0-13,1-12,12s9.5,47.5,9.5,47.5l5,10C755.5,265,774,207.5,753,195.5z"/>
<path class="st2" d="M754,160.5l3.6,12h45.1l1.3-13l3.9,13h5.8l1.3-13l3.9,13h6.1l-5.7-13.8c-2.7-6.6-4.7-13.5-6-20.4
	c-3.7-17.9-19.4-30.7-37.7-30.7l0,0c-0.5,0-1.1,0-1.6,0c-25.3,1-41.5,27.5-31.8,50.9l5.9,14.1h4.8L754,160.5z"/>
<path class="st2" d="M753.5,265c0,0-31,26-22,61s12,145,12,145l31-3V330l43,82l7,59l35-6l-16-72l-30.8-91.8l-3.2-26.5L753.5,265z"/>
<circle class="st1" cx="775" cy="140.5" r="21"/>
<path class="st1" d="M762.5,155c0,0,9,33,4,37s35-13,35-13s-17-19-15-27L762.5,155z"/>
<path class="st3" d="M799.5,172c0,0-16,13.8-31.5,14.9c0,0-20.5,11.1-19.5,12.1s4,15,4,15s5,7.7,5,24c0,2-7,30-7,30l59,8
	c0,0,16-52,17-70s7-37-2-38S799.5,172,799.5,172z"/>
<polygon class="st2" points="752,116.5 752,137.5 760,137.5 763,128.5 763.8,137.5 786,137.5 789,128.5 789.8,137.5 799,137.5 
	799,116.5 "/>
<path class="st4" d="M752,215.5c0,0-2,20,1,24S752,215.5,752,215.5z"/>
<rect x="190.8" y="363.3" class="st0" width="424" height="2"/>
<path class="st5" d="M125.3,526.7c-4.6,16.9-20.3,27.4-20.3,27.4s-8.3-17-3.7-33.9s20.3-27.4,20.3-27.4S129.9,509.7,125.3,526.7z"/>
<path class="st5" d="M83.6,526.7c4.6,16.9,20.3,27.4,20.3,27.4s8.3-17,3.7-33.9s-20.3-27.4-20.3-27.4S79.1,509.7,83.6,526.7z"/>
<path class="st0" d="M90.4,523c12.6,12.2,14.1,31,14.1,31s-18.8-1-31.4-13.3s-14.1-31-14.1-31S77.8,510.8,90.4,523z"/>
<path class="st0" d="M118.6,523c-12.6,12.2-14.1,31-14.1,31s18.8-1,31.4-13.3s14.1-31,14.1-31S131.2,510.8,118.6,523z"/>
<rect y="552.5" class="st0" width="231" height="2"/>
<path class="st2" d="M334.3,46.9c-7.1-13.2-22.2-14.4-22.2-14.4s-14.7-2.5-24.9,16.8c-9.5,18-22.4,35.2-3.6,40.2l3.9-10.5l1.7,11.6
	c2.7,0.3,5.4,0.5,8.1,0.5c20.4,0.2,39.7,1.8,39.4-5.6C336.2,75.7,341.1,59.6,334.3,46.9z"/>
<polygon class="st6" points="274.3,330.8 275.3,356.8 293.3,356.8 292.3,328.8 "/>
<path class="st2" d="M324.3,146.8l-1.8,6l-23.6,78.3l-2.6,8.6l2,92l-25,3c0,0-0.7-9.7-1.8-23.9c-2.1-28.2-5.7-74.5-7.7-99.8
	c-0.8-9.3-1.3-15.8-1.5-17.3c-1-8,12-48,12-48l26-2L324.3,146.8z"/>
<path class="st2" d="M280.3,354.8c0,0-7-8-8-2s-13,29-13,29s-35,23-5,25c0,0,15-2,20-10c0,0,8-5,10-5s14-4,12-10s-1-28-1-28
	L280.3,354.8z"/>
<polygon class="st6" points="279.3,307.8 288.3,324.8 302.3,317.8 293.3,297.8 "/>
<path class="st4" d="M272.3,258.8c0,0-7.5-16.3-9.5-41.5c14.5-16.2,32-34,32-34l21-1l6.5-0.5c1.5,15.2-11.3,34.8-24.4,50.4
	C290,241.6,281.5,250.5,272.3,258.8z"/>
<path class="st2" d="M298.3,182.8c0,0-64,56-55,79s34,51,34,51l19.3-11.5l-18.3-42.5c0,0,7.7-6.8,17-16.9
	c15.2-16.4,34.8-41.5,33-60.1l-1-34l-17,2L298.3,182.8z"/>
<path class="st2" d="M292.3,320.8c0,0-7,0-6,6s3,16,3,16s-8,47,11,36s14-40,14-40s7-18-2-20s-12-4-13-3S292.3,320.8,292.3,320.8z"/>
<circle class="st6" cx="310.8" cy="57.3" r="18"/>
<path class="st6" d="M303.5,64c0,0,7.2,21.3,4.1,22.2c-3,0.9-9.2,5.6-9.2,5.6l9.6,9.4l26.5-13c0,0-11.4-16.5-10.1-23.4L303.5,64z"/>
<path class="st7" d="M334.7,85.2c0,0-21.3,9.5-28.6,2.5c0,0-12.5-1.2-14.8,5.8c-2.3,6.9,1.5,13.1-3.6,14.9s-8.8,7.2-6.2,16.3
	s2.1,10.6-2,13.4c-4.1,2.8-8.4,8.7-8.4,10.7s-4.1,1.8-2.2,3.9c1.9,2.1-2-0.1,1.9,2.1c3.9,2.2,15.6-15.4,23.3-6.1
	c7.6,9.3,32,25.3,34.4,16.4c2.4-8.9,9.2-30.7,9.2-30.7s22.5-38.1,16.7-42.4S334.7,85.2,334.7,85.2z"/>
<path class="st6" d="M328.3,153.8c0,0-11-2-14,5s-20,23-9,24s19-17,19-17l11-2L328.3,153.8z"/>
<path class="st7" d="M342.5,90.6l13,1.2c0,0,5.7,6.5,6.4,12.5c0.8,6,18,51.8,5.8,56.3c-12.2,4.5-38.3,6.5-38.3,6.5L327,153l17.2-5.3
	l-11-25.5L342.5,90.6z"/>
<polygon class="st4" points="279.8,259.3 296.3,300.4 276.8,259.3 293.8,241.3 "/>
<polygon class="st4" points="270,304.5 276.8,313.3 271.8,313.3 "/>
<ellipse transform="matrix(3.967635e-02 -0.9992 0.9992 3.967635e-02 268.8253 345.0254)" class="st2" cx="313.9" cy="32.7" rx="10.9" ry="10.9"/>
<path class="st2" d="M301.9,29.3c0.2-5.6,4.6-10.1,10.2-10.5c-0.4-0.1-0.8-0.1-1.1-0.1c-6-0.2-11.1,4.4-11.4,10.5
	c-0.2,6,4.4,11.1,10.5,11.4c0,0,0,0,0,0c0.4,0,0.8,0,1.2,0C305.8,39.7,301.7,34.9,301.9,29.3z"/>
<polygon class="st2" points="331,45.6 316.3,37.1 295.6,39.5 290.6,58.2 301.2,58.2 304.4,51.4 304.2,58.2 309.1,58.2 312.4,47.3 
	313.7,59.1 331.1,59.4 "/>
<path class="st1" d="M814.5,287c0,0-31,19-21,23s27-17,27-17L814.5,287z"/>
<path class="st3" d="M822.5,172c0,0,7-6,11,8s20,58,16,67s-28,49-28,49l-12-8l24-45l-14-32L822.5,172z"/>
<image style="overflow:visible;" width="640" height="639" xlink:href="1_sHmqYIYMV_C3TUhucHrT4w.png"  transform="matrix(0.5654 0 0 0.5654 360 160.1613)">
</image>
</svg>
